<?xml version="1.0" encoding="utf-8"?>
<!-- Generator: Adobe Illustrator 16.0.0, SVG Export Plug-In . SVG Version: 6.00 Build 0)  -->
<!DOCTYPE svg PUBLIC "-//W3C//DTD SVG 1.1//EN" "http://www.w3.org/Graphics/SVG/1.1/DTD/svg11.dtd">
<svg version="1.1" id="Layer_1" xmlns="http://www.w3.org/2000/svg" xmlns:xlink="http://www.w3.org/1999/xlink" x="0px" y="0px"
	 width="513.47px" height="206.56px" viewBox="0 0 513.47 206.56" style="enable-background:new 0 0 513.47 206.56;"
	 xml:space="preserve">
<style type="text/css">
<![CDATA[
	.st0{clip-path:url(#SVGID_2_);fill:#FFFFFF;}
]]>
</style>
<g>
	<defs>
		<rect id="SVGID_1_" width="513.47" height="206.56"/>
	</defs>
	<clipPath id="SVGID_2_">
		<use xlink:href="#SVGID_1_"  style="overflow:visible;"/>
	</clipPath>
	<path class="st0" d="M497.91,0H15.57C6.98,0,0,6.98,0,15.57v175.42c0,8.58,6.98,15.57,15.57,15.57h482.34
		c8.58,0,15.57-6.99,15.57-15.57V15.57C513.47,6.98,506.49,0,497.91,0 M497.91,3.47c6.67,0,12.1,5.43,12.1,12.1v175.42
		c0,6.67-5.43,12.1-12.1,12.1H15.57c-6.67,0-12.1-5.43-12.1-12.1V15.57c0-6.67,5.43-12.1,12.1-12.1H497.91z"/>
	<path class="st0" d="M75.08,164.93l-0.77-4.16c-1.85,3.23-6.47,5.08-10.94,5.08c-10.47,0-17.4-5.7-17.87-18.02
		c-0.31-3.54-0.62-32.96-0.62-44.36c0-11.4-0.15-33.42,0.62-43.43c0.62-10.01,6.16-19.1,19.72-19.1c14.01,0,18.33,9.09,19.1,17.1
		c0.15,5.24,0.15,23.26,0.15,23.26H70.3V63.12c0-5.7-1.7-7.85-4.93-7.85c-3.08,0-5.24,2.46-5.24,8.63c0,7.7-0.16,31.42-0.16,39.58
		c0,6.62,0.16,35.42,0.31,40.51c0,5.85,1.54,8.78,5.39,8.78c3.54,0,5.39-2.47,5.39-8.17v-33.58h-7.24V98.24h21.1v39.12
		c0,14.01,0.31,27.57,0.31,27.57H75.08z"/>
	<path class="st0" d="M122.36,62.97c-0.31-4.16-2.31-7.24-5.55-7.24h-4.16v40.05c0.15,0,3.39,0,4.62-0.15c2.46-0.46,3.39-2.16,4-4
		c0.92-2.62,1.69-9.7,1.69-14.17C122.97,71.75,122.51,64.35,122.36,62.97 M135.45,96.39c-1.23,4.01-4.31,7.7-6.47,8.63l10.63,59.92
		h-14.32l-9.24-55.6h-3.54v55.6H98.49V41.71h20.48c8.01,0,13.71,4.31,15.86,12.17c1.39,4.62,2.62,11.71,2.62,21.87
		C137.45,85.76,136.84,91.92,135.45,96.39"/>
	<polygon class="st0" points="151.62,164.93 151.62,41.71 185.97,41.71 185.97,56.34 166.1,56.34 166.1,95.93 183.82,95.93 
		183.82,109.79 166.1,109.79 166.1,150.6 186.13,150.6 186.13,164.93 	"/>
	<polygon class="st0" points="197.83,164.93 197.83,41.71 232.18,41.71 232.18,56.34 212.31,56.34 212.31,95.93 230.02,95.93 
		230.02,109.79 212.31,109.79 212.31,150.6 232.33,150.6 232.33,164.93 	"/>
	<polygon class="st0" points="270.07,164.93 257.13,102.24 257.13,164.93 244.04,164.93 244.04,41.71 257.29,41.71 270.23,106.56 
		270.23,41.71 283.47,41.71 283.47,164.93 	"/>
	<path class="st0" d="M324.11,145.2c-9.62,0-16.03-5.13-16.03-14.5v-13.85h11.29v10.39c0,4.88,1.92,6.41,4.62,6.41
		c2.95,0,4.75-1.79,4.75-9.49c0-7.95-0.64-14.62-6.67-24.63c-1.41-2.31-5-8.21-6.03-10.01c-6.03-9.88-8.34-16.8-8.34-28.09
		c0-13.21,6.8-20.4,16.68-20.4c11.16,0,15.65,8.08,15.91,18.34c0.13,4.36,0.13,11.16,0.13,11.16h-11.42v-9.11
		c0-5.26-1.15-8.34-4.62-8.34s-4.88,2.56-4.88,9.49c0,7.82,3.08,14.62,6.8,20.65c1.15,1.79,5.39,8.59,6.29,10.13
		c6.16,10.14,8.08,18.35,8.08,30.92C340.66,139.17,334.38,145.2,324.11,145.2"/>
	<polygon class="st0" points="366.45,53.86 366.45,144.3 354.26,144.3 354.26,53.86 344.51,53.86 344.51,41.68 376.07,41.68 
		376.07,53.86 	"/>
	<rect x="373.37" y="126.09" class="st0" width="13.21" height="18.22"/>
	<rect x="307.18" y="152.73" class="st0" width="79.46" height="12.19"/>
</g>
</svg>
